REM DIRINDEX 1\2,1\3,1\4,1\5,1\6,1\7,1\8
REM DIRNAME cjc150,folder01,folder02,folder03,folder04,folder05,folder06,folder07
TITLE ""
FILE "005 でる文75.mp3" MP3
  TRACK 01 AUDIO
    TITLE "0:"
    INDEX 01 00:00:00
  TRACK 02 AUDIO
    TITLE "8:cjc150_3586"
    INDEX 01 00:00:01
  TRACK 03 AUDIO
    TITLE "0:"
    INDEX 01 00:01:56
  TRACK 04 AUDIO
    TITLE "2:cjc150_3587"
    INDEX 01 00:02:38
  TRACK 05 AUDIO
    TITLE "0:"
    INDEX 01 00:08:72
  TRACK 06 AUDIO
    TITLE "8:cjc150_3588"
    INDEX 01 00:10:33
  TRACK 07 AUDIO
    TITLE "0:"
    INDEX 01 00:13:10
  TRACK 08 AUDIO
    TITLE "3:cjc150_3589"
    INDEX 01 00:13:71
  TRACK 09 AUDIO
    TITLE "3:cjc150_3590"
    INDEX 01 00:15:54
  TRACK 10 AUDIO
    TITLE "3:cjc150_3591"
    INDEX 01 00:17:37
  TRACK 11 AUDIO
    TITLE "3:cjc150_3592"
    INDEX 01 00:19:09
  TRACK 12 AUDIO
    TITLE "3:cjc150_3593"
    INDEX 01 00:20:49
  TRACK 13 AUDIO
    TITLE "3:cjc150_3594"
    INDEX 01 00:23:14
  TRACK 14 AUDIO
    TITLE "3:cjc150_3595"
    INDEX 01 00:25:52
  TRACK 15 AUDIO
    TITLE "3:cjc150_3596"
    INDEX 01 00:27:57
  TRACK 16 AUDIO
    TITLE "8:cjc150_3597"
    INDEX 01 00:29:56
  TRACK 17 AUDIO
    TITLE "0:"
    INDEX 01 00:32:33
  TRACK 18 AUDIO
    TITLE "4:cjc150_3598"
    INDEX 01 00:33:17
  TRACK 19 AUDIO
    TITLE "4:cjc150_3599"
    INDEX 01 00:35:12
  TRACK 20 AUDIO
    TITLE "4:cjc150_3600"
    INDEX 01 00:37:48
  TRACK 21 AUDIO
    TITLE "4:cjc150_3601"
    INDEX 01 00:40:72
  TRACK 22 AUDIO
    TITLE "4:cjc150_3602"
    INDEX 01 00:44:60
  TRACK 23 AUDIO
    TITLE "4:cjc150_3603"
    INDEX 01 00:46:56
  TRACK 24 AUDIO
    TITLE "8:cjc150_3604"
    INDEX 01 00:49:12
  TRACK 25 AUDIO
    TITLE "0:"
    INDEX 01 00:52:06
  TRACK 26 AUDIO
    TITLE "5:cjc150_3605"
    INDEX 01 00:52:55
  TRACK 27 AUDIO
    TITLE "5:cjc150_3606"
    INDEX 01 00:54:68
  TRACK 28 AUDIO
    TITLE "5:cjc150_3607"
    INDEX 01 00:57:41
  TRACK 29 AUDIO
    TITLE "5:cjc150_3608"
    INDEX 01 00:59:28
  TRACK 30 AUDIO
    TITLE "5:cjc150_3609"
    INDEX 01 01:01:09
  TRACK 31 AUDIO
    TITLE "5:cjc150_3610"
    INDEX 01 01:02:57
  TRACK 32 AUDIO
    TITLE "5:cjc150_3611"
    INDEX 01 01:05:15
  TRACK 33 AUDIO
    TITLE "5:cjc150_3612"
    INDEX 01 01:06:63
  TRACK 34 AUDIO
    TITLE "5:cjc150_3613"
    INDEX 01 01:08:19
  TRACK 35 AUDIO
    TITLE "5:cjc150_3614"
    INDEX 01 01:10:47
  TRACK 36 AUDIO
    TITLE "5:cjc150_3615"
    INDEX 01 01:13:65
  TRACK 37 AUDIO
    TITLE "5:cjc150_3616"
    INDEX 01 01:16:32
  TRACK 38 AUDIO
    TITLE "5:cjc150_3617"
    INDEX 01 01:18:56
  TRACK 39 AUDIO
    TITLE "5:cjc150_3618"
    INDEX 01 01:21:29
  TRACK 40 AUDIO
    TITLE "5:cjc150_3619"
    INDEX 01 01:24:08
  TRACK 41 AUDIO
    TITLE "5:cjc150_3620"
    INDEX 01 01:26:13
  TRACK 42 AUDIO
    TITLE "8:cjc150_3621"
    INDEX 01 01:28:06
  TRACK 43 AUDIO
    TITLE "0:"
    INDEX 01 01:30:60
  TRACK 44 AUDIO
    TITLE "6:cjc150_3622"
    INDEX 01 01:31:41
  TRACK 45 AUDIO
    TITLE "6:cjc150_3623"
    INDEX 01 01:33:52
  TRACK 46 AUDIO
    TITLE "6:cjc150_3624"
    INDEX 01 01:36:33
  TRACK 47 AUDIO
    TITLE "6:cjc150_3625"
    INDEX 01 01:38:30
  TRACK 48 AUDIO
    TITLE "6:cjc150_3626"
    INDEX 01 01:40:19
  TRACK 49 AUDIO
    TITLE "6:cjc150_3627"
    INDEX 01 01:43:43
  TRACK 50 AUDIO
    TITLE "6:cjc150_3628"
    INDEX 01 01:47:54
  TRACK 51 AUDIO
    TITLE "6:cjc150_3629"
    INDEX 01 01:51:07
  TRACK 52 AUDIO
    TITLE "6:cjc150_3630"
    INDEX 01 01:54:31
  TRACK 53 AUDIO
    TITLE "6:cjc150_3631"
    INDEX 01 01:56:69
  TRACK 54 AUDIO
    TITLE "6:cjc150_3632"
    INDEX 01 01:59:53
  TRACK 55 AUDIO
    TITLE "6:cjc150_3633"
    INDEX 01 02:01:54
  TRACK 56 AUDIO
    TITLE "8:cjc150_3634"
    INDEX 01 02:03:08
  TRACK 57 AUDIO
    TITLE "0:"
    INDEX 01 02:04:62
  TRACK 58 AUDIO
    TITLE "7:cjc150_3635"
    INDEX 01 02:05:44
  TRACK 59 AUDIO
    TITLE "7:cjc150_3636"
    INDEX 01 02:12:01
  TRACK 60 AUDIO
    TITLE "0:"
    INDEX 01 02:18:72
